<?xml version="1.0" encoding="UTF-8" standalone="no"?>
<!-- Created with Inkscape (http://www.inkscape.org/) -->

<svg
   width="160mm"
   height="160mm"
   viewBox="0 0 160 160"
   version="1.1"
   id="svg5"
   xml:space="preserve"
   inkscape:version="1.2.1 (9c6d41e410, 2022-07-14)"
   sodipodi:docname="lemox.svg"
   xmlns:inkscape="http://www.inkscape.org/namespaces/inkscape"
   xmlns:sodipodi="http://sodipodi.sourceforge.net/DTD/sodipodi-0.dtd"
   xmlns="http://www.w3.org/2000/svg"
   xmlns:svg="http://www.w3.org/2000/svg"><sodipodi:namedview
     id="namedview7"
     pagecolor="#ffffff"
     bordercolor="#000000"
     borderopacity="0.25"
     inkscape:showpageshadow="2"
     inkscape:pageopacity="0.0"
     inkscape:pagecheckerboard="0"
     inkscape:deskcolor="#d1d1d1"
     inkscape:document-units="mm"
     showgrid="false"
     inkscape:zoom="0.52221046"
     inkscape:cx="344.68861"
     inkscape:cy="404.05165"
     inkscape:window-width="1920"
     inkscape:window-height="1009"
     inkscape:window-x="-8"
     inkscape:window-y="-8"
     inkscape:window-maximized="1"
     inkscape:current-layer="layer1" /><defs
     id="defs2" /><g
     inkscape:label="Layer 1"
     inkscape:groupmode="layer"
     id="layer1"><g
       id="g4325"
       transform="translate(-26.963244,-68.880008)"><circle
         style="fill:#d9fda5;fill-opacity:1;stroke:#96fa08;stroke-width:13.1168;stroke-opacity:1"
         id="path354"
         cx="106.96324"
         cy="148.88"
         r="73.441597" /><path
         style="fill:#96fa08;fill-opacity:1;stroke:#8ae704;stroke-width:0;stroke-dasharray:none;stroke-opacity:1"
         d="m 117.16597,146.22825 c -0.10734,-6.09896 42.56233,-20.87994 45.39865,-21.08079 6.62612,-0.4692 9.10982,10.55069 9.69087,17.16793 0.56067,6.38525 -1.69014,18.86714 -6.26268,18.78861 -10.26579,-0.17631 -48.72941,-9.33952 -48.82684,-14.87575 z"
         id="path412"
         sodipodi:nodetypes="sssss" /><path
         style="fill:#04dd06;fill-opacity:1;stroke:#000000;stroke-width:0;stroke-dasharray:none;stroke-opacity:1"
         d="m 146.367,149.80687 c 0.12821,-0.83542 11.18042,-1.29139 16.58719,-0.60203 2.19537,0.27991 1.72276,3.61444 0.36918,3.81905 -2.82834,0.42757 -17.05742,-2.55853 -16.95637,-3.21702 z"
         id="path3100-2-5"
         sodipodi:nodetypes="ssss" /><path
         style="fill:#04dd06;fill-opacity:1;stroke:#000000;stroke-width:0;stroke-dasharray:none;stroke-opacity:1"
         d="m 124.09836,146.00537 c 0.071,-0.84222 11.06652,-2.04985 16.50768,-1.73032 2.20934,0.12974 1.96492,3.48872 0.62842,3.78504 -2.79265,0.6192 -17.19206,-1.39088 -17.1361,-2.05472 z"
         id="path3100-2"
         sodipodi:nodetypes="ssss" /><path
         style="fill:#04dd06;fill-opacity:1;stroke:#000000;stroke-width:0;stroke-dasharray:none;stroke-opacity:1"
         d="m 143.06821,138.22328 c -0.0375,-0.84437 10.71256,-3.45119 16.1498,-3.83162 2.20775,-0.15447 2.39583,3.20814 1.10832,3.67329 -2.69028,0.97196 -17.22855,0.82387 -17.25812,0.15833 z"
         id="path3100"
         sodipodi:nodetypes="ssss" /><path
         style="fill:#96fa08;fill-opacity:1;stroke:#8ae704;stroke-width:0;stroke-dasharray:none;stroke-opacity:1"
         d="m 110.85667,142.81334 c 5.43169,2.77592 37.45606,-29.06146 38.8826,-31.52113 3.33257,-5.74626 -5.47568,-12.818873 -11.16483,-16.248007 -5.4897,-3.308922 -17.69132,-6.770696 -19.62966,-2.628583 -4.35172,9.29947 -13.01863,47.87795 -8.08811,50.39772 z"
         id="path3256"
         sodipodi:nodetypes="sssss" /><path
         style="fill:#04dd06;fill-opacity:1;stroke:#000000;stroke-width:0;stroke-dasharray:none;stroke-opacity:1"
         d="m 121.25852,113.59987 c 0.79417,0.2892 6.50725,-9.18288 8.50203,-14.255291 0.80996,-2.059596 -2.34118,-3.24823 -3.17132,-2.159692 -1.73461,2.274532 -5.9567,16.187023 -5.33071,16.414983 z"
         id="path3258"
         sodipodi:nodetypes="ssss" /><path
         style="fill:#04dd06;fill-opacity:1;stroke:#000000;stroke-width:0;stroke-dasharray:none;stroke-opacity:1"
         d="m 113.67744,137.37417 c 0.74347,0.402 7.77791,-8.13473 10.49171,-12.86163 1.10192,-1.91932 -1.84197,-3.55519 -2.82211,-2.59945 -2.04801,1.99696 -8.25561,15.14418 -7.6696,15.46108 z"
         id="path3260"
         sodipodi:nodetypes="ssss" /><path
         style="fill:#04dd06;fill-opacity:1;stroke:#96fa08;stroke-width:0;stroke-dasharray:none;stroke-opacity:1"
         d="m 130.2213,117.87934 c 0.65343,0.53609 9.18328,-6.50671 12.74666,-10.63108 1.44688,-1.6747 -1.1321,-3.84066 -2.27612,-3.08883 -2.39048,1.57097 -10.98558,13.29733 -10.47054,13.71991 z"
         id="path3262"
         sodipodi:nodetypes="ssss" /><path
         style="fill:#96fa08;fill-opacity:1;stroke:#8ae704;stroke-width:0;stroke-dasharray:none;stroke-opacity:1"
         d="m 104.8706,143.48058 c -5.385933,2.8637 -37.922765,-28.44976 -39.389024,-30.88597 -3.425386,-5.69142 5.266915,-12.906026 10.899669,-16.427058 5.435265,-3.397582 17.579113,-7.056921 19.584412,-2.946798 4.502073,9.227606 13.793903,47.660356 8.904943,50.259826 z"
         id="path3264"
         sodipodi:nodetypes="sssss"
         inkscape:transform-center-x="-12.342704"
         inkscape:transform-center-y="-10.136437" /><path
         style="fill:#04dd06;fill-opacity:1;stroke:#000000;stroke-width:0;stroke-dasharray:none;stroke-opacity:1"
         d="m 92.454516,111.62455 c -0.819291,0.20766 -5.548316,-9.79211 -7.021554,-15.039775 -0.598192,-2.130761 2.656717,-2.995651 3.372879,-1.828967 1.496479,2.437809 4.294457,16.705062 3.648675,16.868742 z"
         id="path3266"
         sodipodi:nodetypes="ssss"
         inkscape:transform-center-x="-18.857687"
         inkscape:transform-center-y="-17.644502" /><path
         style="fill:#04dd06;fill-opacity:1;stroke:#000000;stroke-width:0;stroke-dasharray:none;stroke-opacity:1"
         d="m 100.81927,135.63075 c -0.80625,0.25363 -6.092896,-9.46289 -7.86037,-14.61889 -0.717694,-2.09355 2.483162,-3.14103 3.264116,-2.01669 1.631872,2.34933 5.231734,16.43566 4.596254,16.63558 z"
         id="path3268"
         sodipodi:nodetypes="ssss"
         inkscape:transform-center-x="-25.763752"
         inkscape:transform-center-y="0.4311597" /><path
         style="fill:#04dd06;fill-opacity:1;stroke:#000000;stroke-width:0;stroke-dasharray:none;stroke-opacity:1"
         d="m 80.902017,119.21689 c -0.753506,0.38288 -7.567385,-8.33092 -10.159427,-13.12566 -1.05248,-1.94687 1.932277,-3.50693 2.887646,-2.52644 1.996277,2.0487 7.865698,15.3503 7.271781,15.6521 z"
         id="path3270"
         sodipodi:nodetypes="ssss"
         inkscape:transform-center-x="-7.9152735"
         inkscape:transform-center-y="-10.59562" /><path
         style="fill:#96fa08;fill-opacity:1;stroke:#8ae704;stroke-width:0;stroke-dasharray:none;stroke-opacity:1"
         d="m 97.961747,147.6156 c 0.54401,-6.07562 -40.957063,-23.87559 -43.771691,-24.27914 -6.57547,-0.94271 -9.842311,9.87094 -10.895928,16.42953 -1.016685,6.32867 0.334095,18.93973 4.900512,19.189 10.252045,0.55962 49.273317,-5.82439 49.767107,-11.33939 z"
         id="path3272"
         sodipodi:nodetypes="sssss"
         inkscape:transform-center-x="-3.4136457"
         inkscape:transform-center-y="13.718978" /><path
         style="fill:#04dd06;fill-opacity:1;stroke:#000000;stroke-width:0;stroke-dasharray:none;stroke-opacity:1"
         d="m 69.631337,135.88858 c 0.365274,-0.76219 -8.504493,-7.37179 -13.358179,-9.85174 -1.970794,-1.00695 -3.461069,2.01324 -2.458681,2.94558 2.094522,1.94817 15.52894,7.50693 15.81686,6.90616 z"
         id="path3274"
         sodipodi:nodetypes="ssss"
         inkscape:transform-center-x="16.382544"
         inkscape:transform-center-y="14.361985" /><path
         style="fill:#04dd06;fill-opacity:1;stroke:#000000;stroke-width:0;stroke-dasharray:none;stroke-opacity:1"
         d="m 92.465348,145.23509 c 0.235263,-0.81179 -9.598621,-5.87676 -14.79337,-7.52687 -2.109287,-0.67002 -3.083933,2.55374 -1.942144,3.30901 2.385715,1.57815 16.550038,4.85773 16.735514,4.21786 z"
         id="path3276"
         sodipodi:nodetypes="ssss"
         inkscape:transform-center-x="-5.9076133"
         inkscape:transform-center-y="24.945149" /><path
         style="fill:#04dd06;fill-opacity:1;stroke:#000000;stroke-width:0;stroke-dasharray:none;stroke-opacity:1"
         d="m 87.004621,149.00117 c -0.07294,-0.84205 -11.071128,-2.02487 -16.511539,-1.69308 -2.209045,0.13475 -1.957057,3.49317 -0.619887,3.78647 2.794046,0.61291 17.188889,-1.42966 17.131426,-2.09339 z"
         id="path3278"
         sodipodi:nodetypes="ssss"
         inkscape:transform-center-x="1.2897875"
         inkscape:transform-center-y="8.8944666" /><path
         style="fill:#96fa08;fill-opacity:1;stroke:#8ae704;stroke-width:0;stroke-dasharray:none;stroke-opacity:1"
         d="m 100.62519,154.85479 c -4.24068,-4.38469 -44.846649,15.37216 -46.992565,17.23764 -5.01322,4.35811 1.031366,13.90119 5.30418,18.98726 4.123028,4.90781 14.54711,12.13289 17.721913,8.84123 7.127673,-7.39011 27.815872,-41.08601 23.966472,-45.06613 z"
         id="path3272-5"
         sodipodi:nodetypes="sssss"
         inkscape:transform-center-x="2.1577297"
         inkscape:transform-center-y="0.57367868" /><path
         style="fill:#96fa08;fill-opacity:1;stroke:#8ae704;stroke-width:0;stroke-dasharray:none;stroke-opacity:1"
         d="m 116.20462,153.74083 c -4.2197,4.4049 17.07215,44.22745 19.01815,46.30064 4.54621,4.84327 13.8517,-1.56103 18.77104,-6.02481 4.7469,-4.30728 11.56898,-14.99947 8.15859,-18.04635 -7.6567,-6.84052 -42.11744,-26.22794 -45.94778,-22.22948 z"
         id="path3272-1"
         sodipodi:nodetypes="sssss"
         inkscape:transform-center-x="-11.640781"
         inkscape:transform-center-y="-11.332271" /><path
         style="fill:#96fa08;fill-opacity:1;stroke:#8ae704;stroke-width:0;stroke-dasharray:none;stroke-opacity:1"
         d="m 107.37584,157.32768 c -6.09459,0.25451 -18.319657,43.72546 -18.352002,46.5687 -0.07551,6.64225 11.072262,8.46824 17.712312,8.6559 6.40723,0.18109 18.73372,-2.80581 18.38423,-7.36564 -0.78468,-10.23729 -12.21228,-48.08995 -17.74454,-47.85896 z"
         id="path3272-1-7"
         sodipodi:nodetypes="sssss"
         inkscape:transform-center-x="-15.689262"
         inkscape:transform-center-y="-5.6632852" /><path
         style="fill:#04dd06;fill-opacity:1;stroke:#000000;stroke-width:0;stroke-dasharray:none;stroke-opacity:1"
         d="m 102.38843,174.06951 c 0.84252,0.0671 2.10065,11.05695 1.80613,16.49954 -0.11959,2.20991 -3.47965,1.98093 -3.78211,0.6458 -0.632031,-2.78979 1.31188,-17.19827 1.97598,-17.14534 z"
         id="path3266-9"
         sodipodi:nodetypes="ssss"
         inkscape:transform-center-x="24.173948"
         inkscape:transform-center-y="10.354947" /><path
         style="fill:#04dd06;fill-opacity:1;stroke:#000000;stroke-width:0;stroke-dasharray:none;stroke-opacity:1"
         d="m 106.41661,188.96903 c 0.84252,0.0671 2.10066,11.05697 1.80613,16.49955 -0.11959,2.2099 -3.47966,1.98091 -3.78211,0.64579 -0.63204,-2.78978 1.31187,-17.19826 1.97598,-17.14534 z"
         id="path3266-8"
         sodipodi:nodetypes="ssss"
         inkscape:transform-center-x="24.17395"
         inkscape:transform-center-y="10.35494" /><path
         style="fill:#04dd06;fill-opacity:1;stroke:#000000;stroke-width:0;stroke-dasharray:none;stroke-opacity:1"
         d="m 112.30895,170.87056 c 0.84253,0.0671 2.10067,11.05696 1.80614,16.49955 -0.11959,2.2099 -3.47966,1.98092 -3.78211,0.64579 -0.63203,-2.78979 1.31188,-17.19827 1.97597,-17.14534 z"
         id="path3266-1"
         sodipodi:nodetypes="ssss"
         inkscape:transform-center-x="24.173945"
         inkscape:transform-center-y="10.354946" /><path
         style="fill:#04dd06;fill-opacity:1;stroke:#000000;stroke-width:0;stroke-dasharray:none;stroke-opacity:1"
         d="m 74.415408,165.48456 c 0.525859,0.66169 -6.648964,9.08078 -10.828383,12.57947 -1.697012,1.42062 -3.822525,-1.19179 -3.05297,-2.32397 1.607989,-2.36573 13.466861,-10.77706 13.881353,-10.2555 z"
         id="path3266-12"
         sodipodi:nodetypes="ssss"
         inkscape:transform-center-x="24.35209"
         inkscape:transform-center-y="-10.223365" /><path
         style="fill:#04dd06;fill-opacity:1;stroke:#000000;stroke-width:0;stroke-dasharray:none;stroke-opacity:1"
         d="m 88.106303,177.5498 c 0.525857,0.66168 -6.648967,9.08077 -10.828393,12.57947 -1.697013,1.42061 -3.822524,-1.19179 -3.052969,-2.32397 1.607997,-2.36574 13.46687,-10.77706 13.881362,-10.2555 z"
         id="path3266-10"
         sodipodi:nodetypes="ssss"
         inkscape:transform-center-x="24.352088"
         inkscape:transform-center-y="-10.22336" /><path
         style="fill:#04dd06;fill-opacity:1;stroke:#000000;stroke-width:0;stroke-dasharray:none;stroke-opacity:1"
         d="m 94.692506,159.16721 c 0.525859,0.66169 -6.648967,9.08077 -10.828385,12.57947 -1.697011,1.42062 -3.822532,-1.19179 -3.052968,-2.32397 1.607989,-2.36573 13.466861,-10.77706 13.881353,-10.2555 z"
         id="path3266-2"
         sodipodi:nodetypes="ssss"
         inkscape:transform-center-x="24.352088"
         inkscape:transform-center-y="-10.223364" /><path
         style="fill:#04dd06;fill-opacity:1;stroke:#000000;stroke-width:0;stroke-dasharray:none;stroke-opacity:1"
         d="m 121.88797,158.05029 c 0.77134,-0.34554 7.15052,8.69133 9.50476,13.60724 0.95592,1.99604 -2.10163,3.40811 -3.00786,2.38206 -1.89363,-2.14395 -7.10488,-15.71694 -6.4969,-15.9893 z"
         id="path3266-6"
         sodipodi:nodetypes="ssss"
         inkscape:transform-center-x="15.664408"
         inkscape:transform-center-y="20.825808" /><path
         style="fill:#04dd06;fill-opacity:1;stroke:#000000;stroke-width:0;stroke-dasharray:none;stroke-opacity:1"
         d="m 139.20522,172.3493 c 0.7405,-0.40746 7.83725,8.07754 10.58557,12.78446 1.11593,1.9112 -1.8159,3.56857 -2.80301,2.62004 -2.06259,-1.98192 -8.36624,-15.08334 -7.78256,-15.4045 z"
         id="path3266-5"
         sodipodi:nodetypes="ssss"
         inkscape:transform-center-x="13.981092"
         inkscape:transform-center-y="22.129471" /><path
         style="fill:#04dd06;fill-opacity:1;stroke:#000000;stroke-width:0;stroke-dasharray:none;stroke-opacity:1"
         d="m 63.534641,147.34257 c -0.0032,0.84519 -10.866491,2.93062 -16.31576,3.04843 -2.21262,0.0478 -2.238346,-3.31993 -0.929902,-3.72246 2.734014,-0.84114 17.248223,0.008 17.245662,0.67403 z"
         id="path3266-22"
         sodipodi:nodetypes="ssss"
         inkscape:transform-center-x="12.154192"
         inkscape:transform-center-y="-22.871394" /></g></g></svg>
